# xmcd
#
# Track frame offsets:
#	150
#	4941
#	23143
#	36738
#	47106
#	65702
#	84486
#	90247
#	99491
#	115732
#	133923
#	150415
#	153118
#	161805
#	178927
#	195576
#	198264
#	214475
#	228229
#	230262
#	246236
#	285343
#
# Disc length: 4324 seconds
#
# Revision: 0
# Processed by: cddbd v1.5.2PL0 Copyright (c) Steve Scherf et al.
# Submitted via: EasyCDDAExtractor 10.1.0.1
#
DISCID=2910e216
DTITLE=The Planets - the opening
DYEAR=2002
DGENRE=Hip-Hop/Rap
TTITLE0=The Opening
TTITLE1=Set Flames
TTITLE2=Footsteps
TTITLE3=Open Your Mind
TTITLE4=Solar feat. Planetarium
TTITLE5=Global feat. Atmosphere (Slug) and Musab
TTITLE6=Cecil All Good Show
TTITLE7=M.I.C
TTITLE8=The Medicine feat. Binary Star (One Man Army)
TTITLE9=Knowledge of Self
TTITLE10=Bop To This
TTITLE11=N.O.M.A.D Interlude
TTITLE12=Conversation with Malcolm feat. Malik El Shabazz
TTITLE13=Food For Thought
TTITLE14=On Fire feat. Planet Asia and 427
TTITLE15=Hip Hop Love Song
TTITLE16=Hip Hop feat. Ghetto Chilldren
TTITLE17=Can't Stop feat. Zion I
TTITLE18=Questions
TTITLE19=The Closing
TTITLE20=(hidden track)
TTITLE21=Planetary Vibe (video)
EXTD=
EXTT0=
EXTT1=
EXTT2=
EXTT3=
EXTT4=
EXTT5=
EXTT6=
EXTT7=
EXTT8=
EXTT9=
EXTT10=
EXTT11=
EXTT12=
EXTT13=
EXTT14=
EXTT15=
EXTT16=
EXTT17=
EXTT18=
EXTT19=
EXTT20=
EXTT21=
PLAYORDER=
